<?xml version="1.0" encoding="iso-8859-1"?>
<!-- Generator: Adobe Illustrator 19.0.0, SVG Export Plug-In . SVG Version: 6.00 Build 0)  -->
<svg version="1.1" id="Layer_1" xmlns="http://www.w3.org/2000/svg" xmlns:xlink="http://www.w3.org/1999/xlink" x="0px" y="0px"
	 viewBox="0 0 512 512" style="enable-background:new 0 0 512 512;" xml:space="preserve">
<g transform="translate(1 1)">
	<g>
		<g>
			<path d="M101.4,92.867c5.973,0,11.947,0.853,17.92,2.56c0.853,0.853,1.707,0.853,2.56,0.853c3.413,0,5.973-1.707,7.68-5.12
				c1.707-4.267-0.853-9.387-5.12-11.093c-7.68-2.56-15.36-4.267-23.04-4.267c-5.12,0-8.533,3.413-8.533,8.533
				S96.28,92.867,101.4,92.867z"/>
			<path d="M50.2,152.6c-0.853-4.267-5.973-7.68-10.24-6.827s-7.68,5.973-6.827,10.24c1.707,7.68,4.267,15.36,8.533,22.187
				c1.707,2.56,5.12,4.267,7.68,4.267c1.707,0,3.413,0,3.413-0.853c4.267-2.56,5.973-7.68,3.413-11.947
				C53.613,163.693,51.053,158.573,50.2,152.6z"/>
			<path d="M151.747,134.68c0.853,4.267,4.267,6.827,8.533,6.827c0,0,0.853,0,2.56,0.853c4.267-0.853,7.68-5.973,6.827-10.24
				c-1.707-7.68-4.267-15.36-8.533-22.187c-2.56-4.267-7.68-5.973-11.947-3.413c-4.267,2.56-5.973,7.68-3.413,11.947
				C148.333,123.587,150.893,128.707,151.747,134.68z"/>
			<path d="M45.08,121.88c1.707,0.853,2.56,0.853,4.267,0.853c3.413,0,5.973-1.707,7.68-4.267c2.56-5.12,6.827-9.387,11.093-13.653
				c3.413-2.56,4.267-8.533,0.853-11.947c-2.56-3.413-7.68-4.267-11.093-0.853c-5.973,5.12-11.093,11.093-15.36,17.92
				C39.96,114.2,40.813,119.32,45.08,121.88z"/>
			<path d="M100.547,195.267c-5.973,0-11.093-1.707-17.067-3.413c-4.267-1.707-9.387,0.853-11.093,5.12s0.853,9.387,5.12,11.093
				c7.68,2.56,15.36,4.267,23.893,4.267c5.12,0,8.533-4.267,7.68-8.533C109.08,198.68,104.813,195.267,100.547,195.267z"/>
			<path d="M157.72,166.253c-4.267-1.707-9.387-0.853-11.947,3.413c-2.56,5.12-6.827,9.387-11.093,13.653
				c-3.413,2.56-4.267,8.533-0.853,11.947c1.707,1.707,4.267,2.56,6.827,2.56c1.707,0,3.413-0.853,5.12-1.707
				c5.973-5.12,11.093-11.093,15.36-17.92C162.84,173.933,161.987,168.813,157.72,166.253z"/>
			<path d="M101.4,109.933c-18.773,0-34.133,15.36-34.133,34.133S82.627,178.2,101.4,178.2c18.773,0,34.133-15.36,34.133-34.133
				S120.173,109.933,101.4,109.933z M101.4,161.133c-9.387,0-17.067-7.68-17.067-17.067S92.013,127,101.4,127
				c9.387,0,17.067,7.68,17.067,17.067S110.787,161.133,101.4,161.133z"/>
			<path d="M232.813,121.88c1.707,0.853,2.56,0.853,4.267,0.853c3.413,0,5.973-1.707,7.68-4.267
				c2.56-5.12,6.827-9.387,11.093-13.653c3.413-2.56,4.267-8.533,0.853-11.947c-2.56-3.413-8.533-4.267-11.947-0.853
				c-5.973,5.12-11.093,11.093-15.36,17.92C227.693,114.2,228.547,119.32,232.813,121.88z"/>
			<path d="M345.453,166.253c-4.267-1.707-9.387-0.853-11.947,3.413c-2.56,5.12-6.827,9.387-11.093,13.653
				c-3.413,2.56-4.267,8.533-0.853,11.947c1.707,1.707,4.267,2.56,6.827,2.56c1.707,0,3.413-0.853,5.12-1.707
				c5.973-5.12,11.093-11.093,15.36-17.92C350.573,173.933,349.72,168.813,345.453,166.253z"/>
			<path d="M339.48,134.68c0.853,4.267,4.267,6.827,8.533,6.827c0,0,0.853,0,2.56,0.853c4.267-0.853,7.68-5.973,6.827-10.24
				c-1.707-7.68-4.267-15.36-8.533-22.187c-2.56-4.267-7.68-5.973-11.947-3.413c-4.267,2.56-5.973,7.68-3.413,11.947
				C336.067,123.587,338.627,128.707,339.48,134.68z"/>
			<path d="M289.133,92.867c5.973,0,11.947,0.853,17.92,2.56c0.853,0.853,1.707,0.853,2.56,0.853c3.413,0,5.973-1.707,7.68-5.12
				c1.707-4.267-0.853-9.387-5.12-11.093c-6.827-2.56-15.36-4.267-23.04-4.267c-5.12,0-8.533,3.413-8.533,8.533
				S284.013,92.867,289.133,92.867z"/>
			<path d="M289.133,195.267c-5.973,0-11.093-1.707-17.067-3.413c-4.267-1.707-9.387,0.853-11.093,5.12s0.853,9.387,5.12,11.093
				c6.827,2.56,15.36,4.267,23.04,4.267c5.12,0,8.533-4.267,8.533-8.533C297.667,198.68,293.4,195.267,289.133,195.267z"/>
			<path d="M237.08,182.467c1.707,0,3.413,0,3.413-0.853c4.267-2.56,5.973-7.68,3.413-11.947c-2.56-5.973-5.12-11.093-5.973-17.067
				c-0.853-4.267-5.973-7.68-10.24-6.827s-7.68,5.973-6.827,10.24c1.707,7.68,4.267,15.36,8.533,22.187
				C231.107,180.76,234.52,182.467,237.08,182.467z"/>
			<path d="M289.133,178.2c18.773,0,34.133-15.36,34.133-34.133s-15.36-34.133-34.133-34.133c-18.773,0-34.133,15.36-34.133,34.133
				S270.36,178.2,289.133,178.2z M289.133,127c9.387,0,17.067,7.68,17.067,17.067s-7.68,17.067-17.067,17.067
				s-17.067-7.68-17.067-17.067S279.747,127,289.133,127z"/>
			<path d="M186.733,263.533h-128c-14.507,0-25.6,11.093-25.6,25.6V306.2c0,14.507,11.093,25.6,25.6,25.6h128
				c14.507,0,25.6-11.093,25.6-25.6v-17.067C212.333,274.627,201.24,263.533,186.733,263.533z M195.267,306.2
				c0,5.12-3.413,8.533-8.533,8.533h-128c-5.12,0-8.533-3.413-8.533-8.533v-17.067c0-5.12,3.413-8.533,8.533-8.533h128
				c5.12,0,8.533,3.413,8.533,8.533V306.2z"/>
			<path d="M340.333,272.067h-102.4c-5.12,0-8.533,3.413-8.533,8.533c0,5.12,3.413,8.533,8.533,8.533h102.4
				c5.12,0,8.533-3.413,8.533-8.533C348.867,275.48,345.453,272.067,340.333,272.067z"/>
			<path d="M340.333,306.2h-102.4c-5.12,0-8.533,3.413-8.533,8.533s3.413,8.533,8.533,8.533h102.4c5.12,0,8.533-3.413,8.533-8.533
				S345.453,306.2,340.333,306.2z"/>
			<path d="M499.053,251.587c-7.68-5.12-17.92-6.827-26.453-3.413l-81.067,28.523V255c0-14.507-11.093-25.6-25.6-25.6h-20.383
				c27.657-18.385,45.983-49.821,45.983-85.333c0-56.32-46.08-102.4-102.4-102.4c-41.842,0-78.025,25.437-93.867,61.608
				c-15.841-36.171-52.025-61.608-93.867-61.608C45.08,41.667-1,87.747-1,144.067c0,35.513,18.325,66.949,45.983,85.333H24.6
				C10.093,229.4-1,240.493-1,255v187.733c0,14.507,11.093,25.6,25.6,25.6h341.333c14.507,0,25.6-11.093,25.6-25.6v-21.697
				L472.6,449.56c2.56,0.853,5.973,1.707,9.387,1.707c5.973,0,11.947-1.707,17.067-4.267c7.68-5.973,11.947-14.507,11.947-23.893
				V275.48C511,266.093,506.733,256.707,499.053,251.587z M289.133,58.733c46.933,0,85.333,38.4,85.333,85.333
				s-38.4,85.333-85.333,85.333S203.8,191,203.8,144.067S242.2,58.733,289.133,58.733z M232.716,229.4h-74.899
				c16.382-10.889,29.485-26.358,37.449-44.542C203.231,203.042,216.334,218.511,232.716,229.4z M16.067,144.067
				c0-46.933,38.4-85.333,85.333-85.333c46.933,0,85.333,38.4,85.333,85.333S148.333,229.4,101.4,229.4
				C54.467,229.4,16.067,191,16.067,144.067z M374.467,442.733c0,5.12-3.413,8.533-8.533,8.533H24.6
				c-5.12,0-8.533-3.413-8.533-8.533V434.2h42.667c5.12,0,8.533-3.413,8.533-8.533s-3.413-8.533-8.533-8.533H16.067v-17.067h17.067
				c5.12,0,8.533-3.413,8.533-8.533S38.253,383,33.133,383H16.067V255c0-5.12,3.413-8.533,8.533-8.533h341.333
				c5.12,0,8.533,3.413,8.533,8.533v33.28v121.173V442.733z M391.533,294.253l68.267-24.094v157.415l-68.267-24.094V294.253z
				 M494.787,423.107c0,3.413-1.707,6.827-5.12,9.387s-7.68,2.56-11.093,1.707l-1.707-0.853v-168.96l1.707-0.853
				c4.267-0.853,7.68-0.853,11.093,1.707c3.413,1.707,5.12,5.12,5.12,9.387V423.107z"/>
		</g>
	</g>
</g>
<g>
</g>
<g>
</g>
<g>
</g>
<g>
</g>
<g>
</g>
<g>
</g>
<g>
</g>
<g>
</g>
<g>
</g>
<g>
</g>
<g>
</g>
<g>
</g>
<g>
</g>
<g>
</g>
<g>
</g>
</svg>
